<?xml version="1.0" standalone="no"?>
<!DOCTYPE svg PUBLIC "-//W3C//DTD SVG 20010904//EN"
 "http://www.w3.org/TR/2001/REC-SVG-20010904/DTD/svg10.dtd">
<svg version="1.0" xmlns="http://www.w3.org/2000/svg"
 width="147.000000pt" height="113.000000pt" viewBox="0 0 147.000000 113.000000"
 preserveAspectRatio="xMidYMid meet">
<metadata>
Created by potrace 1.15, written by Peter Selinger 2001-2017
</metadata>
<g transform="translate(0.000000,113.000000) scale(0.100000,-0.100000)"
fill="#000000" stroke="none">
<path d="M825 1007 c-13 -10 -30 -12 -64 -5 -31 6 -81 3 -156 -8 -120 -17
-181 -38 -196 -66 -5 -10 -15 -18 -22 -18 -29 -1 -78 -58 -84 -96 -7 -49 -17
-61 -54 -69 -28 -6 -39 -28 -19 -40 5 -3 10 -21 10 -38 0 -18 8 -44 18 -58 26
-38 103 -109 113 -103 5 3 26 0 46 -5 30 -9 39 -8 46 4 6 12 12 13 29 4 20
-11 37 0 38 24 0 4 9 2 21 -5 17 -11 22 -10 30 5 6 9 21 17 35 17 46 0 52 -6
153 -142 12 -16 12 -30 1 -89 l-13 -70 -43 7 c-40 6 -43 4 -58 -25 l-17 -31
116 0 c63 0 115 2 115 6 0 3 -16 12 -35 20 -31 13 -35 18 -35 53 0 42 43 131
64 131 7 0 22 13 34 29 19 26 27 29 94 33 40 2 75 1 78 -3 8 -12 60 -22 60
-12 0 6 21 10 46 11 51 0 64 11 64 55 0 15 3 27 8 27 25 1 60 155 42 189 -5 9
-16 46 -26 84 -14 55 -21 68 -40 73 -13 3 -30 17 -39 30 -8 13 -22 24 -30 24
-8 0 -39 16 -69 35 -53 34 -59 35 -149 35 -62 0 -99 -4 -112 -13z"/>
</g>
</svg>
